inDegrees=no
num_controls=7
num_derivatives=13
num_iterations=142
num_multipliers=7
num_parameters=0
num_slacks=7
num_states=26
objective=4.266145
objective_accelerations=0.497851
objective_balance=0.042851
objective_effort=0.604527
objective_height=3.048664
objective_ligament=0.072252
solver_duration=1452.743329
status=Solve_Succeeded
success=true
DataType=double
version=3
OpenSimVersion=4.4-2022-07-23-0e9fedc
endheader
time	/jointset/ground_pelvis/pelvis_tilt/value	/jointset/ground_pelvis/pelvis_tx/value	/jointset/ground_pelvis/pelvis_ty/value	/jointset/hip_l/hip_flexion_l/value	/jointset/hip_l/hip_adduction_l/value	/jointset/hip_l/hip_rotation_l/value	/jointset/back/lumbar_extension/value	/jointset/patellofemoral_l/patellar_flexion_l/value	/jointset/knee_l/knee_flexion_l/value	/jointset/knee_l/knee_adduction_l/value	/jointset/knee_l/knee_rotation_l/value	/jointset/ankle_l/ankle_angle_l/value	/jointset/subtalar_l/subtalar_angle_l/value	/jointset/ground_pelvis/pelvis_tilt/speed	/jointset/ground_pelvis/pelvis_tx/speed	/jointset/ground_pelvis/pelvis_ty/speed	/jointset/hip_l/hip_flexion_l/speed	/jointset/hip_l/hip_adduction_l/speed	/jointset/hip_l/hip_rotation_l/speed	/jointset/back/lumbar_extension/speed	/jointset/patellofemoral_l/patellar_flexion_l/speed	/jointset/knee_l/knee_flexion_l/speed	/jointset/knee_l/knee_adduction_l/speed	/jointset/knee_l/knee_rotation_l/speed	/jointset/ankle_l/ankle_angle_l/speed	/jointset/subtalar_l/subtalar_angle_l/speed	/forceset/tau_hip_flexion_l	/forceset/tau_hip_adduction_l	/forceset/tau_hip_rotation_l	/forceset/tau_knee_flexion_l	/forceset/tau_ankle_angle_l	/forceset/tau_subtalar_angle_l	/forceset/tau_lumbar_extension	lambda_cid13_p0	lambda_cid13_p1	lambda_cid13_p2	lambda_cid13_p3	lambda_cid13_p4	lambda_cid13_p5	lambda_cid14_p0	/jointset/ground_pelvis/pelvis_tilt/accel	/jointset/ground_pelvis/pelvis_tx/accel	/jointset/ground_pelvis/pelvis_ty/accel	/jointset/hip_l/hip_flexion_l/accel	/jointset/hip_l/hip_adduction_l/accel	/jointset/hip_l/hip_rotation_l/accel	/jointset/back/lumbar_extension/accel	/jointset/patellofemoral_l/patellar_flexion_l/accel	/jointset/knee_l/knee_flexion_l/accel	/jointset/knee_l/knee_adduction_l/accel	/jointset/knee_l/knee_rotation_l/accel	/jointset/ankle_l/ankle_angle_l/accel	/jointset/subtalar_l/subtalar_angle_l/accel	gamma_cid13_p0	gamma_cid13_p1	gamma_cid13_p2	gamma_cid13_p3	gamma_cid13_p4	gamma_cid13_p5	gamma_cid14_p0
1.5	0.00640357533184089	-0.008917522979847506	0.7988314798017516	0.8563562401189683	-0.3211213574944761	-0.08024333103487252	-0.8122513130871181	1.055308460513022	1.055308460512958	-0.03737032517133265	-0.1745240565163249	0.2742183734583339	0.07466085857557794	0.3031274298651673	0.1867744944173629	0.6763979958897405	-2.477129196364751	0.06505203833410657	-0.7088210531254148	0.8023418580369122	-2.704570990903685	-2.704570990903637	-0.3077438998671056	1.937443233075915e-05	-0.7056244327028068	-0.2200222728180003	-0.2025866217065515	0.01877892747538245	-0.008956512401157026	-0.2892938320115195	0.04165854414231625	0.04249728365550196	0.2841339159528727	-26.97034762861796	-14.75068978295984	3.058365772219306	-10.06901465550993	-656.489161640114	-75.20025291024042	-4.521790062283533	0.2595857649710059	0.8391805308847169	-0.9127051023206538	-0.9067666855008659	0.4823781587737397	-0.6561226215074576	2.289607243449525	-1.718972196029406	-1.71897219602941	-0.1512965199234616	0.05290846775421214	-1.115414156740673	0.3813098714157161	5.430642778766859e-07	2.874611033581733e-06	-2.152207799635088e-06	1.735060216885902e-07	6.344643778921501e-07	1.387861400614594e-06	5.332568354461089e-07
1.51	0.009447648914258876	-0.007007909096728848	0.8055484184724473	0.8315414165551656	-0.3204481938705341	-0.08736439420072796	-0.8041148671313636	1.028179668131009	1.028179668131084	-0.04045788780305327	-0.1745240699011505	0.2671071486029323	0.07247795719198123	0.3056152318119169	0.1951344226774859	0.6668380318367508	-2.485531505994712	0.06958594250006177	-0.7153200067727656	0.8248622029634479	-2.720829745376848	-2.720829745376705	-0.3098027352763854	-7.77850576837415e-06	-0.7164789565999455	-0.2165023335467063	-0.1946190336408023	0.01779048075703489	-0.009053165187657938	-0.2829614923635811	0.04367830736692598	0.04255967933260496	0.2760425988912033	-25.9143773919412	-15.1338243663541	3.31493408388332	-10.35220706548674	-649.5916264087832	-75.29395516130529	-5.444514657902327	0.2326023053636511	0.8323641230952697	-1.00025981667503	-0.7613220758541079	0.4397168428997477	-0.6354547750178204	2.220478594925352	-1.525777714356221	-1.525777714341837	-0.2377977876851599	-0.02870795360709262	-1.04908288532475	0.3453997159706834	5.602641977060762e-07	3.171482580198981e-06	-2.097908433226858e-06	2.04453406602386e-07	6.717846516823913e-07	1.584304128824034e-06	5.497841098909431e-07
1.52	0.01251444549530912	-0.005015102901104519	0.8121652339506357	0.8066516981002362	-0.3197295271454583	-0.09454818151078308	-0.7957557716308108	1.000898998075995	1.000898998076192	-0.04356696293613421	-0.1745239909711657	0.2598916562327349	0.07033186795329323	0.30767202959212	0.2034129569184972	0.6563733573882717	-2.492108174589087	0.07415265856175247	-0.7213658819668638	0.8468717669967538	-2.734946525505869	-2.73494652550563	-0.3120464001358667	3.78373955258799e-05	-0.7264779356620586	-0.2126598438360371	-0.18665144557507	0.01680203403869598	-0.009149817974507285	-0.2766291527156544	0.04569807059153506	0.04262207500971109	0.2679512818295178	-24.8522239395956	-15.52773519940385	3.584294362755935	-10.70157207536369	-642.6094214944145	-75.4702187280824	-6.448793602796449	0.1733849316618828	0.8229017270622624	-1.093647181418516	-0.5416384783838287	0.4889405379209197	-0.5655069308568691	2.187451064803681	-1.290577327200911	-1.290577327200912	-0.1882624099637478	0.06746223563291977	-0.9443051897357293	0.4458199592907396	5.509616355286962e-07	3.29863566358137e-06	-1.951644432341181e-06	2.215167310376118e-07	6.90460894815173e-07	1.691766727518608e-06	5.385869309572612e-07
1.53	0.01559977303777113	-0.002940003668062074	0.8186729449229554	0.7817053970006818	-0.318964789115309	-0.1017913267285603	-0.7871792682784891	0.9734881885040786	0.9734881885041606	-0.04669800074614217	-0.1745233298430138	0.252580723489346	0.06822625475806243	0.3093345224927612	0.2115843905652861	0.6450237654721369	-2.496838433682202	0.0788026209430458	-0.7272737780477214	0.8683281773422683	-2.746816072570004	-2.746816072569803	-0.3141126128465568	5.367739163475296e-05	-0.7355413311336307	-0.2083972387834374	-0.1789924798068649	0.01675225067555509	-0.009321632812980894	-0.270076794915443	0.0473736517695352	0.04187087125000481	0.2600424549817361	-23.96593822516026	-15.47235652483514	3.707607570798831	-10.80277182234513	-635.908074999758	-74.71372661922591	-7.530865922758174	0.1538607294838343	0.8109343274820365	-1.177238193041204	-0.391649053689227	0.4541301437455056	-0.6045157294940965	2.109627100877281	-1.07534118219796	-1.075341182203523	-0.2080496888640374	-0.03769641321885557	-0.8621218217353728	0.4259865786912754	5.135001862191232e-07	3.245462879776724e-06	-1.707668007323216e-06	2.238282412143573e-07	6.89327855374404e-07	1.704687938603638e-06	4.979325203089064e-07
